<svg width="22" height="22" viewBox="0 0 22 22" fill="none" xmlns="http://www.w3.org/2000/svg">
<g clip-path="url(#clip0_1_418)">
<path d="M15.1257 2.75C17.9105 2.75 20.1673 5.04167 20.1673 8.25C20.1673 14.6667 13.2923 18.3333 11.0007 19.7083C8.70898 18.3333 1.83398 14.6667 1.83398 8.25C1.83398 5.04167 4.12565 2.75 6.87565 2.75C8.58065 2.75 10.084 3.66667 11.0007 4.58333C11.9173 3.66667 13.4207 2.75 15.1257 2.75ZM11.8568 17.0537C12.6644 16.544 13.3932 16.0371 14.0752 15.4944C16.8077 13.3219 18.334 10.9478 18.334 8.25C18.334 6.08667 16.9251 4.58333 15.1257 4.58333C14.1393 4.58333 13.0723 5.10583 12.2968 5.8795L11.0007 7.17567L9.70448 5.8795C8.92899 5.10583 7.86198 4.58333 6.87565 4.58333C5.09732 4.58333 3.66732 6.10133 3.66732 8.25C3.66732 10.9487 5.19448 13.3219 7.92523 15.4944C8.60815 16.0371 9.3369 16.544 10.1445 17.0528C10.4186 17.226 10.6899 17.3919 11.0007 17.5771C11.3114 17.3919 11.5827 17.226 11.8568 17.0537Z" fill="#202020"/>
</g>
<defs>
<clipPath id="clip0_1_418">
<rect width="22" height="22" fill="white"/>
</clipPath>
</defs>
</svg>
