<svg width="16" height="16" viewBox="0 0 16 16" fill="none" xmlns="http://www.w3.org/2000/svg">
<g clip-path="url(#clip0_1_1931)">
<path d="M7.33333 1.33337L12.1987 2.85337C12.3344 2.89574 12.453 2.98036 12.5372 3.0949C12.6214 3.20944 12.6667 3.34789 12.6667 3.49004V4.66671H14C14.1768 4.66671 14.3464 4.73695 14.4714 4.86197C14.5964 4.98699 14.6667 5.15656 14.6667 5.33337V10.6667C14.6667 10.8435 14.5964 11.0131 14.4714 11.1381C14.3464 11.2631 14.1768 11.3334 14 11.3334L11.8533 11.334C11.5953 11.674 11.282 11.974 10.92 12.2207L7.33333 14.6667L3.74667 12.2214C3.20835 11.8543 2.76783 11.3614 2.46343 10.7853C2.15902 10.2093 1.99993 9.56758 2 8.91604V3.49004C2.00008 3.348 2.04552 3.2097 2.12971 3.0953C2.21389 2.98089 2.33241 2.89637 2.468 2.85404L7.33333 1.33337ZM7.33333 2.72937L3.33333 3.98004V8.91604C3.33324 9.32419 3.42683 9.72692 3.60691 10.0932C3.78699 10.4595 4.04874 10.7795 4.372 11.0287L4.498 11.1194L7.33333 13.0534L9.85467 11.3334H6.66667C6.48986 11.3334 6.32029 11.2631 6.19526 11.1381C6.07024 11.0131 6 10.8435 6 10.6667V5.33337C6 5.15656 6.07024 4.98699 6.19526 4.86197C6.32029 4.73695 6.48986 4.66671 6.66667 4.66671H11.3333V3.98004L7.33333 2.72937ZM7.33333 8.00004V10H13.3333V8.00004H7.33333ZM7.33333 6.66671H13.3333V6.00004H7.33333V6.66671Z" fill="#202020"/>
</g>
<defs>
<clipPath id="clip0_1_1931">
<rect width="16" height="16" fill="white"/>
</clipPath>
</defs>
</svg>
