<svg width="16" height="16" viewBox="0 0 16 16" fill="none" xmlns="http://www.w3.org/2000/svg">
<g clip-path="url(#clip0_1_2035)">
<path d="M8.00016 14.6666C4.31816 14.6666 1.3335 11.682 1.3335 7.99998C1.3335 4.31798 4.31816 1.33331 8.00016 1.33331C11.6822 1.33331 14.6668 4.31798 14.6668 7.99998C14.6668 11.682 11.6822 14.6666 8.00016 14.6666ZM8.00016 13.3333C9.41465 13.3333 10.7712 12.7714 11.7714 11.7712C12.7716 10.771 13.3335 9.41447 13.3335 7.99998C13.3335 6.58549 12.7716 5.22894 11.7714 4.22874C10.7712 3.22855 9.41465 2.66665 8.00016 2.66665C6.58567 2.66665 5.22912 3.22855 4.22893 4.22874C3.22873 5.22894 2.66683 6.58549 2.66683 7.99998C2.66683 9.41447 3.22873 10.771 4.22893 11.7712C5.22912 12.7714 6.58567 13.3333 8.00016 13.3333ZM7.3335 4.66665H8.66683V5.99998H7.3335V4.66665ZM7.3335 7.33331H8.66683V11.3333H7.3335V7.33331Z" fill="#202020"/>
</g>
<defs>
<clipPath id="clip0_1_2035">
<rect width="16" height="16" fill="white"/>
</clipPath>
</defs>
</svg>
