<svg width="16" height="16" viewBox="0 0 16 16" fill="none" xmlns="http://www.w3.org/2000/svg">
<g clip-path="url(#clip0_1_1920)">
<path d="M8.66667 13.3333H12.6667V10.6667H10V9.33333H12.6667V4H11.3333V7.33333L8.66667 6.26667V13.3333ZM7.33333 13.3333V6.26667L4.66667 7.33333V4H3.33333V13.3333H7.33333ZM4.66667 2.66667V2H11.3333V2.66667H13.3333C13.5101 2.66667 13.6797 2.7369 13.8047 2.86193C13.9298 2.98695 14 3.15652 14 3.33333V14C14 14.1768 13.9298 14.3464 13.8047 14.4714C13.6797 14.5964 13.5101 14.6667 13.3333 14.6667H2.66667C2.48986 14.6667 2.32029 14.5964 2.19526 14.4714C2.07024 14.3464 2 14.1768 2 14V3.33333C2 3.15652 2.07024 2.98695 2.19526 2.86193C2.32029 2.7369 2.48986 2.66667 2.66667 2.66667H4.66667ZM8 5.33333L10.3333 3.33333H5.66667L8 5.33333Z" fill="#202020"/>
</g>
<defs>
<clipPath id="clip0_1_1920">
<rect width="16" height="16" fill="white"/>
</clipPath>
</defs>
</svg>
