<svg width="40" height="40" viewBox="0 0 40 40" fill="none" xmlns="http://www.w3.org/2000/svg">
<g clip-path="url(#clip0_1_1901)">
<path d="M27.5011 5C32.5645 5 36.6678 9.16667 36.6678 15C36.6678 26.6667 24.1678 33.3333 20.0011 35.8333C15.8345 33.3333 3.33447 26.6667 3.33447 15C3.33447 9.16667 7.50114 5 12.5011 5C15.6011 5 18.3345 6.66667 20.0011 8.33333C21.6678 6.66667 24.4011 5 27.5011 5ZM21.5578 31.0067C23.0261 30.08 24.3511 29.1583 25.5911 28.1717C30.5595 24.2217 33.3345 19.905 33.3345 15C33.3345 11.0667 30.7728 8.33333 27.5011 8.33333C25.7078 8.33333 23.7678 9.28333 22.3578 10.69L20.0011 13.0467L17.6445 10.69C16.2345 9.28333 14.2945 8.33333 12.5011 8.33333C9.26781 8.33333 6.66781 11.0933 6.66781 15C6.66781 19.9067 9.44447 24.2217 14.4095 28.1717C15.6511 29.1583 16.9761 30.08 18.4445 31.005C18.9428 31.32 19.4361 31.6217 20.0011 31.9583C20.5661 31.6217 21.0595 31.32 21.5578 31.0067Z" fill="#202020"/>
</g>
<defs>
<clipPath id="clip0_1_1901">
<rect width="40" height="40" fill="white"/>
</clipPath>
</defs>
</svg>
