<svg width="16" height="16" viewBox="0 0 16 16" fill="none" xmlns="http://www.w3.org/2000/svg">
<g clip-path="url(#clip0_1_1942)">
<path d="M8 0.666626L13.478 1.88396C13.7827 1.95196 14 2.22196 14 2.53463V9.19263C14 10.53 13.3313 11.7793 12.2187 12.5206L8 15.3333L3.78133 12.5206C2.668 11.7786 2 10.53 2 9.19329V2.53463C2 2.22196 2.21733 1.95196 2.522 1.88396L8 0.666626ZM8 2.03263L3.33333 3.06929V9.19263C3.33333 10.084 3.77867 10.9166 4.52067 11.4113L8 13.7313L11.4793 11.4113C12.2213 10.9166 12.6667 10.0846 12.6667 9.19329V3.06929L8 2.03329V2.03263ZM10.968 5.48129L11.9113 6.42396L7.66867 10.6666L4.84 7.83796L5.78267 6.89529L7.668 8.78063L10.968 5.48063V5.48129Z" fill="#202020"/>
</g>
<defs>
<clipPath id="clip0_1_1942">
<rect width="16" height="16" fill="white"/>
</clipPath>
</defs>
</svg>
