<svg width="22" height="22" viewBox="0 0 22 22" fill="none" xmlns="http://www.w3.org/2000/svg">
<g clip-path="url(#clip0_1_675)">
<path d="M10.6554 6.62018C9.85239 6.62018 8.60939 5.70718 7.30039 5.74018C5.57339 5.76218 3.98939 6.74117 3.09839 8.29217C1.30539 11.4052 2.63639 16.0032 4.38539 18.5332C5.24339 19.7652 6.25539 21.1512 7.59739 21.1072C8.88439 21.0522 9.36839 20.2712 10.9304 20.2712C12.4814 20.2712 12.9214 21.1072 14.2854 21.0742C15.6714 21.0522 16.5514 19.8202 17.3984 18.5772C18.3774 17.1472 18.7844 15.7612 18.8064 15.6842C18.7734 15.6732 16.1114 14.6502 16.0784 11.5702C16.0564 8.99617 18.1794 7.76418 18.2784 7.70918C17.0684 5.93818 15.2094 5.74018 14.5604 5.69618C12.8664 5.56418 11.4474 6.62018 10.6554 6.62018ZM13.5154 4.02418C14.2304 3.16617 14.7034 1.96717 14.5714 0.779175C13.5484 0.823175 12.3164 1.46117 11.5794 2.31917C10.9194 3.07818 10.3474 4.29918 10.5014 5.46518C11.6344 5.55317 12.8004 4.88217 13.5154 4.02418Z" fill="#202020"/>
</g>
<defs>
<clipPath id="clip0_1_675">
<rect width="22" height="22" rx="11" fill="white"/>
</clipPath>
</defs>
</svg>
