<svg width="22" height="22" viewBox="0 0 22 22" fill="none" xmlns="http://www.w3.org/2000/svg">
<g clip-path="url(#clip0_1_665)">
<path d="M2.80871 6.88421C3.57138 5.36551 4.74138 4.08884 6.18794 3.19689C7.63449 2.30493 9.3006 1.83284 11 1.83337C13.4705 1.83337 15.5458 2.74087 17.1325 4.22129L14.5045 6.85029C13.5539 5.94187 12.3457 5.47896 11 5.47896C8.61213 5.47896 6.59088 7.09229 5.87129 9.25838C5.68796 9.80838 5.58346 10.395 5.58346 11C5.58346 11.605 5.68796 12.1917 5.87129 12.7417C6.59179 14.9087 8.61213 16.5211 11 16.5211C12.233 16.5211 13.2825 16.1957 14.1039 15.6457C14.58 15.3322 14.9877 14.9254 15.3021 14.4499C15.6166 13.9744 15.8314 13.4401 15.9335 12.8792H11V9.33354H19.6332C19.7414 9.93304 19.8 10.5582 19.8 11.2081C19.8 14.0003 18.8009 16.3506 17.0665 17.9456C15.5504 19.3463 13.475 20.1667 11 20.1667C9.79612 20.1672 8.60391 19.9304 7.49154 19.4699C6.37917 19.0094 5.36845 18.3342 4.51715 17.4829C3.66585 16.6316 2.99066 15.6209 2.53016 14.5085C2.06967 13.3962 1.83289 12.204 1.83337 11C1.83337 9.52054 2.18721 8.12171 2.80871 6.88421Z" fill="#202020"/>
</g>
<defs>
<clipPath id="clip0_1_665">
<rect width="22" height="22" rx="11" fill="white"/>
</clipPath>
</defs>
</svg>
