<svg width="16" height="16" viewBox="0 0 16 16" fill="none" xmlns="http://www.w3.org/2000/svg">
<g clip-path="url(#clip0_1_723)">
<path d="M5.33337 13.3335V14.6215C5.33348 14.6849 5.3155 14.747 5.28155 14.8005C5.2476 14.854 5.19909 14.8968 5.14171 14.9237C5.08432 14.9507 5.02045 14.9607 4.95757 14.9526C4.89469 14.9445 4.83542 14.9187 4.78671 14.8781L2.04004 12.5895C1.98736 12.5455 1.94951 12.4864 1.93167 12.4202C1.91382 12.354 1.91684 12.2838 1.94032 12.2194C1.9638 12.1549 2.00659 12.0993 2.06285 12.06C2.11911 12.0208 2.18611 11.9999 2.25471 12.0001H12C12.3537 12.0001 12.6928 11.8597 12.9428 11.6096C13.1929 11.3596 13.3334 11.0204 13.3334 10.6668V5.33346H14.6667V10.6668C14.6667 11.374 14.3858 12.0523 13.8857 12.5524C13.3856 13.0525 12.7073 13.3335 12 13.3335H5.33337ZM10.6667 2.6668V1.3788C10.6666 1.3154 10.6846 1.25329 10.7185 1.19975C10.7525 1.14622 10.801 1.10347 10.8584 1.07652C10.9158 1.04958 10.9796 1.03956 11.0425 1.04764C11.1054 1.05572 11.1647 1.08156 11.2134 1.12213L13.96 3.4108C14.0127 3.45469 14.0505 3.51375 14.0684 3.57991C14.0862 3.64608 14.0833 3.71615 14.0599 3.78057C14.0365 3.84499 13.9938 3.90064 13.9376 3.93993C13.8815 3.97921 13.8146 4.00024 13.746 4.00013H4.00004C3.64642 4.00013 3.30728 4.14061 3.05723 4.39066C2.80718 4.6407 2.66671 4.97984 2.66671 5.33346V10.6668H1.33337V5.33346C1.33337 4.62622 1.61433 3.94794 2.11442 3.44785C2.61452 2.94775 3.2928 2.6668 4.00004 2.6668H10.6667Z" fill="#202020"/>
</g>
<defs>
<clipPath id="clip0_1_723">
<rect width="16" height="16" fill="white"/>
</clipPath>
</defs>
</svg>
