<svg width="81" height="55" viewBox="0 0 81 55" fill="none" xmlns="http://www.w3.org/2000/svg">
<g clip-path="url(#clip0_1_1195)">
<path d="M74.7937 54.7397C71.0055 54.7397 68.7591 52.8011 68.5871 50.0092H72.2089C72.2089 50.9399 72.7246 52.1787 74.9657 52.2557C76.5188 52.2557 77.3782 51.3252 77.3782 50.6256C77.2062 49.5407 75.8251 49.4638 74.4497 49.2267C72.8966 49.0015 71.6932 48.6873 70.8279 48.302C69.6244 47.6796 68.9308 46.3576 68.9308 44.9647C68.9308 42.4806 71.0055 40.542 74.6217 40.542C78.0719 40.542 80.3126 42.3267 80.4784 45.0416H77.0345C77.0345 44.3477 76.8625 43.1802 74.7934 43.1802C73.4124 43.1802 72.5529 43.4113 72.3809 44.419C72.3809 45.8182 75.3094 45.7409 77.5502 46.2804C79.619 46.8258 81.0001 48.1418 81.0001 50.0092C81.0001 53.4237 78.2436 54.7397 74.7937 54.7397ZM8.79175 31.831L20.6834 24.9248L27.0617 35.8682H11.0325" fill="#202020"/>
<path d="M33.7972 54.3278V40.5156V54.3278Z" fill="#202020"/>
<path d="M33.7972 54.3278V40.5156" stroke="#202020" stroke-width="3.54158"/>
<path d="M3.27248 47.6263C3.27248 49.7958 5.16927 51.5802 7.23212 51.5802C9.47884 51.5802 11.198 49.7958 11.198 47.6263C11.198 45.5337 9.47884 43.6723 7.23212 43.6723C5.16927 43.6723 3.27248 45.5337 3.27248 47.6263ZM7.06039 54.7636C3.27221 54.7636 0 51.5802 0 47.6263C0 43.6723 3.27248 40.5661 7.06039 40.5661C8.61347 40.5661 9.99455 40.9574 11.198 41.8049V40.72H14.6481V54.4493H11.1982V53.5958C10.1668 54.3724 8.61374 54.7636 7.06066 54.7636H7.06039ZM53.087 35.8651L36.5421 7.00759L48.4335 0.0244141L69.1162 35.8651H53.087ZM19.1297 47.6263C19.1297 49.7958 20.855 51.5802 23.0955 51.5802C25.1584 51.5802 27.0614 49.7958 27.0614 47.6263C27.0614 45.5337 25.1584 43.6723 23.0955 43.6723C20.8547 43.6723 19.1297 45.5337 19.1297 47.6263ZM22.9235 54.7636C18.9577 54.7636 15.8575 51.5802 15.8575 47.6263C15.8575 43.6723 18.9577 40.5661 22.9235 40.5661C24.4707 40.5661 25.852 40.9574 27.0614 41.8049V35.9895H30.5056V54.4493H27.0611V53.5958C25.8518 54.3724 24.4707 54.7636 22.9233 54.7636H22.9235ZM22.7537 19.497L34.817 12.6739L48.09 35.8642H35.505V39.2787H32.0606V35.8642L22.7537 19.497ZM78.7652 39.3862C77.8998 39.3862 77.0404 38.6097 77.0404 37.679C77.0404 36.7482 77.8998 35.9717 78.7652 35.9717C79.7966 35.9717 80.4905 36.7485 80.4905 37.679C80.4905 38.6094 79.7966 39.3865 78.7652 39.3865V39.3862ZM78.7652 36.209C77.8998 36.209 77.3841 36.9024 77.3841 37.679C77.3841 38.4555 77.8998 39.1551 78.7652 39.1551C79.6248 39.1551 80.1406 38.4558 80.1406 37.679C80.1406 36.9021 79.6248 36.209 78.7652 36.209Z" fill="#202020"/>
<path d="M79.1205 38.6153L78.7765 37.8388H78.4328V38.6153H78.172V36.7539H78.9485C79.1205 36.7539 79.4642 36.9912 79.4642 37.2993C79.4642 37.6074 79.2922 37.7618 79.1205 37.8388L79.4642 38.6153H79.1205ZM78.7765 36.9913H78.4328V37.6077H78.7765C79.1205 37.6077 79.1205 37.5307 79.1205 37.2993C79.1205 37.1395 79.1205 36.9913 78.7765 36.9913ZM56.0012 47.626C56.0012 49.7955 57.7266 51.58 59.9671 51.58C62.0359 51.58 63.927 49.7955 63.927 47.626C63.927 45.5334 62.0359 43.672 59.9671 43.672C57.7263 43.672 56.0012 45.5334 56.0012 47.626ZM59.7894 54.7633C55.8295 54.7633 52.729 51.58 52.729 47.626C52.729 43.672 55.8295 40.5659 59.7891 40.5659C61.3425 40.5659 62.7236 40.9571 63.927 41.8047V40.7198H67.2051V54.449H63.9273V53.5956C62.7236 54.3721 61.3425 54.7633 59.7891 54.7633H59.7894ZM40.1559 47.626C40.1559 49.7955 42.0527 51.58 44.1215 51.58C46.3625 51.58 48.0873 49.7955 48.0873 47.626C48.0873 45.5334 46.3623 43.672 44.1215 43.672C42.0527 43.672 40.1559 45.5334 40.1559 47.626ZM48.0873 35.9893H51.5315V54.449H48.0873V53.5956C47.05 54.3721 45.6689 54.7633 44.1215 54.7633C40.1559 54.7633 36.8834 51.58 36.8834 47.626C36.8834 43.672 40.1559 40.5659 44.1215 40.5659C45.6686 40.5659 47.05 40.9571 48.0873 41.8047V35.9893Z" fill="#202020"/>
</g>
<defs>
<clipPath id="clip0_1_1195">
<rect width="81" height="54.7884" fill="white"/>
</clipPath>
</defs>
</svg>
