<svg width="130" height="21" viewBox="0 0 130 21" fill="none" xmlns="http://www.w3.org/2000/svg">
<path d="M11.6579 9.26852C13.1908 9.48457 14.3781 10.0139 15.2201 10.8565C16.0836 11.6775 16.5154 12.6929 16.5154 13.9028C16.5154 14.2269 16.483 14.5725 16.4183 14.9398C16.2024 16.0201 15.6843 17.0031 14.8639 17.8889C14.0651 18.7747 13.0612 19.4769 11.8522 19.9954C10.6433 20.4923 9.35874 20.7407 7.99865 20.7407C7.41575 20.7407 6.76809 20.7083 6.05566 20.6435C5.775 20.6219 5.44037 20.6003 5.05178 20.5787C4.68477 20.5571 4.27458 20.5463 3.82122 20.5463L1.61916 20.5787C1.23056 20.6003 0.71243 20.6111 0.0647664 20.6111C0.0215888 20.6111 0 20.5463 0 20.4167C0 20.287 0.0215888 20.2222 0.0647664 20.2222C0.906729 20.2222 1.50042 20.071 1.84584 19.7685C2.21285 19.4444 2.48271 18.8179 2.65542 17.8889L5.31084 2.88426C5.37561 2.49537 5.40799 2.1821 5.40799 1.94444C5.40799 1.44753 5.27846 1.12346 5.01939 0.972223C4.76033 0.820988 4.29617 0.74537 3.62692 0.74537C3.56215 0.74537 3.52977 0.70216 3.52977 0.615741C3.52977 0.550927 3.54056 0.496914 3.56215 0.453704C3.58374 0.410494 3.60533 0.378087 3.62692 0.356483L5.18131 0.38889C6.04486 0.432099 6.7357 0.453704 7.25383 0.453704C7.83673 0.453704 8.41963 0.421297 9.00252 0.356483C9.19682 0.334877 9.48827 0.313271 9.87687 0.291667C10.2655 0.270062 10.6109 0.25926 10.9131 0.25926C12.7266 0.25926 14.1191 0.561729 15.0906 1.16667C16.0836 1.77161 16.5802 2.6358 16.5802 3.75926C16.5802 4.01852 16.5478 4.29938 16.483 4.60185C16.2672 5.59568 15.749 6.50309 14.9286 7.32407C14.1083 8.12346 13.018 8.7716 11.6579 9.26852ZM10.4274 0.907407C9.84449 0.907407 9.40192 1.08025 9.09967 1.42593C8.81902 1.77161 8.61393 2.35494 8.48439 3.17593L7.41575 9.2037L8.54916 9.23611C9.75813 9.23611 10.7836 8.79321 11.6256 7.90741C12.4891 7.02161 13.0612 5.89815 13.3419 4.53704C13.4282 4.16975 13.4714 3.80247 13.4714 3.43519C13.4714 2.59259 13.2123 1.96605 12.6942 1.55556C12.1761 1.12346 11.4205 0.907407 10.4274 0.907407ZM12.9533 15.3287C13.0828 14.767 13.1476 14.2485 13.1476 13.7731C13.1476 12.6065 12.7914 11.7099 12.0789 11.0833C11.3665 10.4352 10.2763 10.1111 8.80823 10.1111C8.20374 10.1111 7.67481 10.1327 7.22145 10.1759L5.82897 18.1157C5.76421 18.4398 5.73182 18.7207 5.73182 18.9583C5.73182 19.3472 5.85056 19.6281 6.08804 19.8009C6.3471 19.9522 6.81126 20.0278 7.48052 20.0278C9.03491 20.0278 10.2547 19.6281 11.1398 18.8287C12.025 18.0293 12.6294 16.8627 12.9533 15.3287Z" fill="#202020"/>
<path d="M17.8608 20.6111C17.8177 20.6111 17.7961 20.5463 17.7961 20.4167C17.7961 20.287 17.8177 20.2222 17.8608 20.2222C18.4653 20.2222 18.9079 20.1682 19.1886 20.0602C19.4908 19.9522 19.7067 19.7469 19.8362 19.4444C19.9873 19.142 20.1277 18.6559 20.2572 17.9861L22.9126 2.98148C22.999 2.41975 23.0422 2.06327 23.0422 1.91204C23.0422 1.45833 22.9126 1.15586 22.6536 1.00463C22.3945 0.83179 21.9411 0.74537 21.2935 0.74537C21.2503 0.74537 21.2287 0.680556 21.2287 0.550927C21.2287 0.421297 21.2503 0.356483 21.2935 0.356483L22.7507 0.38889C23.6143 0.432099 24.3051 0.453704 24.8232 0.453704C25.3414 0.453704 26.0538 0.432099 26.9605 0.38889L28.4825 0.356483C28.5257 0.356483 28.5473 0.421297 28.5473 0.550927C28.5473 0.680556 28.5257 0.74537 28.4825 0.74537C27.878 0.74537 27.4247 0.810185 27.1224 0.939814C26.8418 1.04784 26.6259 1.26389 26.4748 1.58796C26.3236 1.89043 26.1941 2.36574 26.0862 3.01389L23.4631 17.8565C23.3984 18.267 23.366 18.6127 23.366 18.8935C23.366 19.304 23.4523 19.5849 23.6251 19.7361C23.8193 19.8657 24.154 19.9306 24.6289 19.9306H25.4709C27.0685 19.9306 28.4717 19.5417 29.6807 18.7639C30.8897 17.9645 31.9799 16.733 32.9514 15.0694C32.973 15.0478 33.0162 15.037 33.0809 15.037C33.2536 15.037 33.3292 15.0802 33.3076 15.1667C32.7679 17.1759 32.3901 18.8287 32.1742 20.125C32.131 20.2978 32.0663 20.4275 31.9799 20.5139C31.9151 20.5787 31.8072 20.6111 31.6561 20.6111H17.8608Z" fill="#202020"/>
<path d="M42.533 21C41.0002 21 39.6725 20.6543 38.5499 19.963C37.4489 19.25 36.6069 18.2778 36.024 17.0463C35.4411 15.8148 35.1497 14.4213 35.1497 12.8657C35.1497 12.2176 35.2252 11.4182 35.3763 10.4676C35.7218 8.47994 36.4342 6.69753 37.5136 5.12037C38.6147 3.5216 39.9748 2.26852 41.5939 1.36111C43.2131 0.453704 44.9294 0 46.7428 0C48.2972 0 49.6357 0.345679 50.7584 1.03704C51.9026 1.7284 52.7769 2.68981 53.3814 3.9213C53.9859 5.13117 54.2881 6.52469 54.2881 8.10185C54.2881 8.92284 54.2126 9.71142 54.0615 10.4676C53.6944 12.5849 52.928 14.4429 51.7622 16.0417C50.5964 17.6404 49.1932 18.8719 47.5524 19.7361C45.9333 20.5787 44.2601 21 42.533 21ZM43.9255 20.1574C45.4583 20.1574 46.8076 19.4444 47.9734 18.0185C49.1608 16.571 49.9596 14.6265 50.3698 12.1852C50.5425 11.2346 50.6288 10.1867 50.6288 9.04167C50.6288 6.64352 50.1755 4.66667 49.2687 3.11111C48.362 1.55556 47.0991 0.777777 45.4799 0.777777C43.9255 0.777777 42.5654 1.50154 41.3996 2.94907C40.2338 4.375 39.4458 6.30864 39.0356 8.75C38.8629 9.89506 38.7766 10.9321 38.7766 11.8611C38.7766 14.2377 39.2192 16.2145 40.1043 17.7917C41.011 19.3688 42.2848 20.1574 43.9255 20.1574Z" fill="#202020"/>
<path d="M60.5469 21C58.7982 21 57.1467 20.6327 55.5923 19.8981C55.3764 19.7469 55.3117 19.5417 55.398 19.2824L56.4343 14.713C56.4343 14.6049 56.4882 14.5509 56.5962 14.5509C56.7257 14.5509 56.8013 14.6049 56.8229 14.713C57.6217 18.3858 59.1545 20.2222 61.4213 20.2222C62.4791 20.2222 63.3319 19.8549 63.9796 19.1204C64.6488 18.3642 64.9834 17.3704 64.9834 16.1389C64.9834 15.1019 64.6812 14.2052 64.0767 13.4491C63.4938 12.6929 62.6411 11.8827 61.5184 11.0185C60.6981 10.392 60.0504 9.86265 59.5754 9.43056C59.1005 8.99846 58.7011 8.49074 58.3773 7.90741C58.0534 7.32407 57.8915 6.67593 57.8915 5.96296C57.8915 5.66049 57.9239 5.34722 57.9887 5.02315C58.3341 3.40278 59.1868 2.16049 60.5469 1.2963C61.9286 0.432099 63.483 0 65.2101 0C66.4839 0 67.7576 0.259259 69.0313 0.777777C69.3336 0.929013 69.4523 1.11265 69.3875 1.3287L68.9018 5.54167C68.8802 5.60648 68.8154 5.63889 68.7075 5.63889C68.6211 5.63889 68.5672 5.60648 68.5456 5.54167C68.2002 4.02932 67.6497 2.84105 66.894 1.97685C66.1384 1.11265 65.2857 0.680556 64.3358 0.680556C63.6018 0.680556 62.9973 0.885803 62.5223 1.2963C62.0474 1.68519 61.7019 2.16049 61.486 2.72222C61.2702 3.26235 61.1622 3.79167 61.1622 4.31019C61.1622 4.95833 61.3133 5.54167 61.6156 6.06018C61.9178 6.5787 62.274 7.03241 62.6842 7.4213C63.0944 7.78858 63.7097 8.2963 64.5301 8.94444C65.8038 9.93827 66.7753 10.8457 67.4446 11.6667C68.1138 12.4877 68.4484 13.4599 68.4484 14.5833C68.4484 14.9506 68.4268 15.2315 68.3837 15.4259C68.0814 17.0679 67.2503 18.4074 65.8902 19.4444C64.5301 20.4815 62.749 21 60.5469 21Z" fill="#202020"/>
<path d="M75.4343 21C73.6857 21 72.0341 20.6327 70.4797 19.8981C70.2638 19.7469 70.1991 19.5417 70.2854 19.2824L71.3217 14.713C71.3217 14.6049 71.3757 14.5509 71.4836 14.5509C71.6131 14.5509 71.6887 14.6049 71.7103 14.713C72.5091 18.3858 74.0419 20.2222 76.3087 20.2222C77.3665 20.2222 78.2193 19.8549 78.867 19.1204C79.5362 18.3642 79.8708 17.3704 79.8708 16.1389C79.8708 15.1019 79.5686 14.2052 78.9641 13.4491C78.3812 12.6929 77.5285 11.8827 76.4058 11.0185C75.5855 10.392 74.9378 9.86265 74.4629 9.43056C73.9879 8.99846 73.5885 8.49074 73.2647 7.90741C72.9408 7.32407 72.7789 6.67593 72.7789 5.96296C72.7789 5.66049 72.8113 5.34722 72.8761 5.02315C73.2215 3.40278 74.0742 2.16049 75.4343 1.2963C76.816 0.432099 78.3704 0 80.0975 0C81.3713 0 82.645 0.259259 83.9187 0.777777C84.221 0.929013 84.3397 1.11265 84.275 1.3287L83.7892 5.54167C83.7676 5.60648 83.7029 5.63889 83.5949 5.63889C83.5086 5.63889 83.4546 5.60648 83.433 5.54167C83.0876 4.02932 82.5371 2.84105 81.7814 1.97685C81.0258 1.11265 80.1731 0.680556 79.2232 0.680556C78.4892 0.680556 77.8847 0.885803 77.4097 1.2963C76.9348 1.68519 76.5893 2.16049 76.3735 2.72222C76.1576 3.26235 76.0496 3.79167 76.0496 4.31019C76.0496 4.95833 76.2007 5.54167 76.503 6.06018C76.8052 6.5787 77.1614 7.03241 77.5716 7.4213C77.9818 7.78858 78.5971 8.2963 79.4175 8.94444C80.6912 9.93827 81.6627 10.8457 82.332 11.6667C83.0012 12.4877 83.3358 13.4599 83.3358 14.5833C83.3358 14.9506 83.3143 15.2315 83.2711 15.4259C82.9688 17.0679 82.1377 18.4074 80.7776 19.4444C79.4175 20.4815 77.6364 21 75.4343 21Z" fill="#202020"/>
<path d="M93.2039 21C91.6711 21 90.3433 20.6543 89.2207 19.963C88.1197 19.25 87.2777 18.2778 86.6948 17.0463C86.1119 15.8148 85.8205 14.4213 85.8205 12.8657C85.8205 12.2176 85.8961 11.4182 86.0472 10.4676C86.3926 8.47994 87.105 6.69753 88.1845 5.12037C89.2855 3.5216 90.6456 2.26852 92.2647 1.36111C93.8839 0.453704 95.6002 0 97.4137 0C98.9681 0 100.307 0.345679 101.429 1.03704C102.573 1.7284 103.448 2.68981 104.052 3.9213C104.657 5.13117 104.959 6.52469 104.959 8.10185C104.959 8.92284 104.883 9.71142 104.732 10.4676C104.365 12.5849 103.599 14.4429 102.433 16.0417C101.267 17.6404 99.864 18.8719 98.2233 19.7361C96.6041 20.5787 94.931 21 93.2039 21ZM94.5963 20.1574C96.1291 20.1574 97.4784 19.4444 98.6442 18.0185C99.8316 16.571 100.63 14.6265 101.041 12.1852C101.213 11.2346 101.3 10.1867 101.3 9.04167C101.3 6.64352 100.846 4.66667 99.9396 3.11111C99.0328 1.55556 97.7699 0.777777 96.1507 0.777777C94.5963 0.777777 93.2362 1.50154 92.0704 2.94907C90.9047 4.375 90.1167 6.30864 89.7065 8.75C89.5338 9.89506 89.4474 10.9321 89.4474 11.8611C89.4474 14.2377 89.89 16.2145 90.7751 17.7917C91.6819 19.3688 92.9556 20.1574 94.5963 20.1574Z" fill="#202020"/>
<path d="M129.935 0.356483C129.978 0.356483 130 0.421297 130 0.550927C130 0.680556 129.978 0.74537 129.935 0.74537C129.244 0.74537 128.737 0.896605 128.413 1.19907C128.089 1.47994 127.863 2.05247 127.733 2.91667L125.499 17.9861C125.434 18.375 125.402 18.7099 125.402 18.9907C125.402 19.4877 125.52 19.8225 125.758 19.9954C126.017 20.1466 126.47 20.2222 127.118 20.2222C127.183 20.2222 127.215 20.287 127.215 20.4167C127.215 20.5463 127.183 20.6111 127.118 20.6111C126.513 20.6111 126.028 20.6003 125.661 20.5787L123.523 20.5463L121.418 20.5787C121.051 20.6003 120.555 20.6111 119.929 20.6111C119.864 20.6111 119.832 20.5463 119.832 20.4167C119.832 20.287 119.864 20.2222 119.929 20.2222C120.533 20.2222 120.987 20.1682 121.289 20.0602C121.591 19.9522 121.807 19.7469 121.937 19.4444C122.088 19.142 122.217 18.6559 122.325 17.9861L124.624 2.56018L115.849 20.3843C115.805 20.4707 115.73 20.5139 115.622 20.5139C115.492 20.5139 115.406 20.4599 115.363 20.3519L111.801 3.33796L109.437 16.3981C109.35 16.8302 109.307 17.2731 109.307 17.7269C109.307 18.5262 109.458 19.142 109.761 19.5741C110.084 20.0062 110.538 20.2222 111.121 20.2222C111.185 20.2222 111.218 20.287 111.218 20.4167C111.218 20.5463 111.185 20.6111 111.121 20.6111C110.624 20.6111 110.235 20.6003 109.955 20.5787L108.206 20.5463L106.684 20.5787C106.403 20.6003 105.982 20.6111 105.421 20.6111C105.356 20.6111 105.324 20.5463 105.324 20.4167C105.324 20.287 105.356 20.2222 105.421 20.2222C106.155 20.2222 106.803 19.8873 107.364 19.2176C107.925 18.5478 108.314 17.6404 108.53 16.4954L111.25 1.87963C110.775 1.12346 110.009 0.74537 108.951 0.74537C108.886 0.74537 108.854 0.680556 108.854 0.550927C108.854 0.421297 108.886 0.356483 108.951 0.356483C109.275 0.356483 109.534 0.367285 109.728 0.38889L111.023 0.421297L112.934 0.38889C113.172 0.367285 113.441 0.356483 113.744 0.356483C113.981 0.356483 114.165 0.464507 114.294 0.680556C114.445 0.896606 114.596 1.35031 114.748 2.04167L117.565 15.4259L124.495 1.16667C124.603 0.929013 124.765 0.734569 124.981 0.583333C125.197 0.4321 125.434 0.356483 125.693 0.356483C125.995 0.356483 126.244 0.367285 126.438 0.38889L127.798 0.421297L129.061 0.38889C129.255 0.367285 129.547 0.356483 129.935 0.356483Z" fill="#202020"/>
</svg>
