<svg width="14" height="12" viewBox="0 0 14 12" fill="none" xmlns="http://www.w3.org/2000/svg">
<path d="M14 12H0V11H14V12ZM14 10H0V9H14V10ZM13 0C13.265 0.000673203 13.5187 0.106555 13.7061 0.293945C13.8934 0.481336 13.9993 0.734991 14 1V7C13.9996 7.26511 13.8945 7.51957 13.707 7.70703C13.5196 7.89449 13.2651 7.99964 13 8H1C0.734991 7.99933 0.481336 7.89345 0.293945 7.70605C0.106555 7.51866 0.000673203 7.26501 0 7V1C0.000673203 0.73499 0.106555 0.481336 0.293945 0.293945C0.481336 0.106555 0.73499 0.000673203 1 0H13ZM1 7H13V1H1V7ZM6.60938 2.03809C6.99734 1.96092 7.40017 2.00097 7.76562 2.15234C8.13094 2.30372 8.44338 2.55988 8.66309 2.88867C8.88285 3.21757 9 3.60444 9 4C8.9994 4.53025 8.78803 5.03814 8.41309 5.41309C8.03814 5.78803 7.53025 5.9994 7 6C6.60444 6 6.21757 5.88285 5.88867 5.66309C5.55988 5.44338 5.30372 5.13094 5.15234 4.76562C5.00097 4.40017 4.96092 3.99734 5.03809 3.60938C5.1153 3.22155 5.30632 2.86556 5.58594 2.58594C5.86556 2.30632 6.22155 2.1153 6.60938 2.03809ZM3 3C3.26522 3 3.5195 3.10543 3.70703 3.29297C3.89457 3.48051 4 3.73478 4 4C4 4.19778 3.94094 4.39121 3.83105 4.55566C3.72121 4.71995 3.56539 4.84817 3.38281 4.92383C3.20009 4.99952 2.99867 5.01905 2.80469 4.98047C2.61081 4.94185 2.43276 4.84682 2.29297 4.70703C2.15318 4.56724 2.05815 4.38919 2.01953 4.19531C1.98095 4.00133 2.00048 3.79991 2.07617 3.61719C2.15183 3.43461 2.28005 3.27879 2.44434 3.16895C2.60878 3.05906 2.80222 3 3 3ZM7 3C6.80222 3 6.60878 3.05906 6.44434 3.16895C6.28005 3.27879 6.15183 3.43461 6.07617 3.61719C6.00048 3.79991 5.98095 4.00133 6.01953 4.19531C6.05815 4.38919 6.15318 4.56724 6.29297 4.70703C6.43275 4.84682 6.61081 4.94185 6.80469 4.98047C6.99867 5.01905 7.20009 4.99952 7.38281 4.92383C7.56539 4.84817 7.72121 4.71995 7.83105 4.55566C7.94094 4.39121 8 4.19778 8 4C7.99973 3.73487 7.89451 3.48045 7.70703 3.29297C7.51955 3.10549 7.26513 3.00026 7 3ZM11 3C11.2652 3 11.5195 3.10543 11.707 3.29297C11.8946 3.48051 12 3.73478 12 4C12 4.19778 11.9409 4.39121 11.8311 4.55566C11.7212 4.71995 11.5654 4.84817 11.3828 4.92383C11.2001 4.99952 10.9987 5.01905 10.8047 4.98047C10.6108 4.94185 10.4328 4.84682 10.293 4.70703C10.1532 4.56724 10.0582 4.38919 10.0195 4.19531C9.98095 4.00133 10.0005 3.79991 10.0762 3.61719C10.1518 3.43461 10.28 3.27879 10.4443 3.16895C10.6088 3.05906 10.8022 3 11 3Z" fill="white"/>
</svg>
