<svg width="93" height="45" viewBox="0 0 93 45" fill="none" xmlns="http://www.w3.org/2000/svg">
<path d="M56.2353 14.5638C54.6189 14.587 53.9076 15.8735 52.9647 15.8455C52.379 15.8327 51.9141 15.1147 51.9141 15.1147C51.9141 15.1147 51.5812 15.4565 51.8995 15.8278C52.1641 16.1522 53.0735 16.8732 54.5372 15.783C55.4338 15.115 56.0801 15.4336 57.6556 17.0723C59.2278 18.7149 60.2226 18.4463 60.2226 18.4463C60.5686 18.4009 60.7716 18.0969 61.0293 18.1542C61.2811 18.2137 61.3225 18.8115 61.6064 18.878C61.8893 18.9417 62.0978 18.399 62.3975 18.4704C62.6972 18.5423 62.6813 19.1274 62.9676 19.1947C63.3011 19.2722 63.4459 18.7121 63.766 18.7896C64.0441 18.8566 64.0794 19.4569 64.3392 19.5155C64.652 19.5883 64.801 19.0295 65.1297 19.1097C65.4275 19.1783 65.4068 19.7676 65.7001 19.8334C66.0226 19.9075 66.1912 19.3523 66.4964 19.4249C66.6302 19.4606 66.5976 19.5039 66.7406 19.6228C66.882 19.7398 67.4369 20.002 67.6351 19.7368C67.7631 19.5295 67.4037 19.3697 67.2589 19.2978C67.1098 19.2277 61.4247 17.6539 60.8985 17.425C60.2381 17.139 59.7129 16.2921 59.84 15.944C59.8461 15.9281 59.8543 15.9187 59.8625 15.9089C59.7525 15.7162 59.6622 15.4986 59.5641 15.2879C59.5065 15.2858 59.4443 15.2818 59.376 15.2751C58.8162 15.2175 58.2824 14.4901 56.2353 14.5638Z" fill="#202020"/>
<path d="M70.0821 19.3537C69.8964 19.112 69.597 19.0153 69.39 18.922C69.1876 18.8266 69.2168 18.6291 69.0476 18.5718C68.8745 18.516 68.5714 18.8696 68.3358 18.7958C68.1007 18.7187 68.1181 18.2794 67.9218 18.2145C67.7206 18.151 67.3709 18.4806 67.1883 18.4221C67.0041 18.3687 66.9682 17.9069 66.7907 17.8483C66.6151 17.7947 66.2417 18.123 66.0603 18.0669C65.8774 18.0053 65.8655 17.5556 65.6624 17.4889C65.4603 17.427 65.1054 17.7626 64.9292 17.702C64.7469 17.6456 64.7292 17.1974 64.5353 17.1322C64.3393 17.0697 63.9805 17.3993 63.8 17.3401C63.6137 17.2801 63.5631 16.8191 63.3933 16.7633C63.2202 16.7103 62.8818 16.9822 62.6071 16.9667C60.7837 16.7965 60.0371 15.6963 59.8609 15.9079C59.8526 15.9176 59.8441 15.9271 59.8383 15.9429C59.7112 16.2911 60.2365 17.138 60.8968 17.4239C61.4233 17.6529 67.1081 19.2266 67.2572 19.2967C67.4023 19.3687 67.7614 19.5284 67.6334 19.7357C67.4355 20.0013 66.8804 19.7388 66.7389 19.6217C66.5959 19.5025 66.6289 19.4595 66.4947 19.4239C66.1895 19.3513 66.0206 19.9065 65.6984 19.8324C65.4051 19.7665 65.4256 19.1772 65.128 19.1086C64.7994 19.0284 64.6506 19.5873 64.3375 19.5144C64.0777 19.4562 64.0424 18.8556 63.7643 18.7885C63.4442 18.7111 63.2994 19.2711 62.9659 19.1937C62.6796 19.1263 62.6955 18.541 62.3958 18.4693C62.0964 18.3983 61.8876 18.941 61.6047 18.8769C61.3209 18.8108 61.2797 18.2129 61.0276 18.1532C60.7697 18.0959 60.5666 18.3998 60.2209 18.4452C60.2209 18.4452 59.2261 18.7138 57.6539 17.0712C56.0784 15.4326 55.4324 15.1137 54.5355 15.7819C53.0715 16.8721 52.1624 16.1514 51.8978 15.8268C51.5795 15.4554 51.9124 15.1137 51.9124 15.1137C51.9124 15.1137 52.3773 15.8313 52.963 15.8444C53.9059 15.8725 54.6172 14.586 56.2336 14.5628C58.2807 14.489 58.8146 15.2164 59.3743 15.274C59.4429 15.2807 59.5048 15.2847 59.5624 15.2868C59.941 15.3003 60.1133 15.2137 60.4242 15.0332H60.4221C60.7123 14.9295 60.9648 15.4908 61.2687 15.3774C61.5904 15.2564 61.355 14.6908 61.7013 14.5607C62.0251 14.4451 62.2364 15.0128 62.5461 14.8972C62.8717 14.7783 62.6644 14.1976 62.9769 14.0842C63.2994 13.968 63.4872 14.5418 63.8217 14.4195C64.1573 14.3 63.9406 13.725 64.246 13.6092C64.5613 13.4939 64.7893 14.0589 65.099 13.9488C65.3923 13.8439 65.2246 13.2424 65.5301 13.1327C65.8469 13.0193 66.052 13.5857 66.3895 13.4616C66.6673 13.3647 66.5136 12.7629 66.8017 12.6537C67.0892 12.5461 67.3569 13.1043 67.6565 12.9924C67.9373 12.8888 67.773 12.2903 68.0718 12.1781C68.3882 12.0644 68.6324 12.6223 68.9315 12.5172C69.2275 12.4111 69.0025 11.9282 69.3891 11.7361C69.3891 11.7361 69.9235 11.5605 69.89 11.1684C69.8857 11.1023 69.7751 10.2636 68.8946 10.0859C68.0483 9.91544 61.3614 11.7651 61.2751 11.6587C60.6593 10.4429 59.8709 10.7806 59.7508 10.8075C59.6286 10.8386 58.8816 11.1562 58.0548 10.8386C56.4311 10.1038 55.1352 11.9727 54.2456 11.7269C53.4264 11.4968 52.8005 11.6297 52.4569 11.7465C52.1426 11.855 51.6332 12.2644 50.5527 11.8931C42.204 9.04231 35.6793 11.5343 35.6793 11.5343C32.0002 12.7635 31.5295 11.5343 31.5295 11.5343C31.5295 11.5343 30.3189 9.88953 38.8435 7.92803C51.0963 5.11382 51.4655 0.456408 51.3207 0.161604C51.1195 -0.265511 51.0426 0.23782 50.6393 0.700909C50.3009 1.08565 49.9073 0.895413 49.9073 0.895413C49.5217 0.71036 49.2753 1.15089 49.2753 1.15089C49.2753 1.15089 48.7793 1.92037 48.3409 1.48258C47.9193 1.06156 47.3596 2.01213 47.1507 2.05024C46.9005 2.09444 46.7782 1.97219 46.4422 1.81793C45.9392 1.59569 45.3987 2.51241 45.1225 2.57735C44.6984 2.67399 44.4015 2.07829 44.0372 2.3295C42.9485 3.08129 42.7772 3.18616 42.4839 2.89349C42.2671 2.67216 42.2354 2.43223 41.508 3.12855C40.8891 3.72181 40.5925 3.83309 40.3443 3.45566C40.0886 3.0758 40.1541 2.55723 39.0907 3.57761C38.5831 4.06539 38.3231 4.07484 38.0326 3.85565C37.8134 3.69072 37.8149 2.90599 37.0521 3.61694C36.3607 4.25654 35.8586 4.53702 35.6628 3.96875C35.4467 3.33037 34.6315 4.08643 34.4434 4.26417C34.2477 4.4419 33.8291 4.91292 33.5355 4.42696C33.2419 3.93827 32.5392 4.6675 32.1212 5.13059C31.799 5.49003 31.538 5.2126 31.1981 4.98456C30.8115 4.71933 29.6543 6.33511 29.5491 6.43175C29.443 6.52352 29.3628 6.43175 29.0973 6.20676C28.69 5.86135 27.5906 7.78108 27.4129 7.90608C27.4129 7.90608 27.3379 8.07162 27.0379 7.78535C26.6117 7.37988 24.3475 10.3599 23.4933 13.7317C22.4003 18.0544 24.1414 21.3692 24.1414 21.3692C24.1414 21.3692 24.6646 21.385 24.8874 21.0317L25.2267 20.2674C25.5011 19.6306 25.9517 19.8309 25.9517 19.8309L24.8844 23.0088C24.7158 23.4273 24.8176 24.0191 25.1904 24.5791C25.5423 25.1416 25.7843 25.5218 26.0663 25.783C26.9327 26.5991 26.8443 25.6339 26.8666 25.5132C26.9681 24.9968 27.5403 25.3934 27.9897 25.641C28.8049 26.0986 28.7141 25.0882 28.893 24.7584C29.0174 24.5227 29.418 24.5117 29.853 24.8764C30.1917 25.1599 30.5286 24.2005 30.5286 24.2005C30.9512 22.157 29.9582 21.9207 29.4214 21.8908L28.3342 21.8408C28.3342 21.8408 28.4055 21.5299 28.5186 21.2387L28.5674 21.0323C29.753 18.0782 27.772 17.5081 27.1791 17.555C26.5251 17.6133 26.5709 17.1968 26.5709 17.1968C26.5709 17.1968 30.1521 16.4917 29.4845 20.2894C29.4845 20.2894 29.3525 20.9503 29.2732 21.2954L30.2573 21.4101C31.1042 21.5158 31.2545 22.5179 31.2545 22.5179C31.2545 22.5179 34.369 23.3408 36.1357 23.0118C36.1357 23.0118 36.9253 22.8234 37.1445 22.3323C37.1445 22.3323 38.2886 19.637 41.6284 19.5229C41.6284 19.5229 41.7461 19.872 41.2126 20.0534C40.5727 20.2692 38.4408 20.4384 37.9978 22.8871V22.8969C37.9496 23.2987 38.0573 24.1544 38.9292 24.5508C39.6718 24.8858 39.9334 26.2382 40.0873 26.6031C40.5196 27.6397 41.1672 26.6488 41.1672 26.6488C41.1672 26.6488 41.5772 25.8123 41.9296 26.276C42.5244 27.0586 42.8006 26.6644 42.9357 26.1662C43.0835 25.6282 43.2991 25.3937 43.9216 26.0473C44.1878 26.3315 44.71 26.1123 44.7618 25.6263C44.8719 24.5563 45.5947 25.4068 45.6984 25.4483C45.8218 25.4949 46.5785 25.3254 46.1551 24.1188C46.1551 24.1188 45.5831 22.9691 43.0043 22.4731C42.3991 22.3585 42.4952 21.9204 42.4952 21.9204L43.0631 22.0003C43.2329 22.0277 44.7326 22.1942 44.892 22.2195C51.1832 22.8405 55.9565 20.7064 56.1 20.5543C60.987 21.4905 67.6319 21.1713 68.8794 20.722C70.1327 20.2814 70.2263 19.5492 70.0821 19.3537ZM59.9913 11.5556C60.0938 11.391 60.1901 11.2977 60.2788 11.2529C60.6581 11.0373 60.9001 11.7123 60.8541 11.737C60.852 11.7382 60.8434 11.741 60.8395 11.7425C60.8389 11.7434 60.8389 11.7461 60.8383 11.7471C60.7785 11.7757 60.0468 11.9833 59.9749 11.9358C59.8304 11.8355 59.9913 11.5556 59.9913 11.5556ZM57.2131 11.769C57.2131 11.769 57.3076 11.6498 57.4902 11.5894C57.6707 11.5239 57.9433 11.5126 58.3042 11.7452C58.7191 12.0096 58.7088 12.2153 58.7088 12.2153C58.6954 12.222 58.6771 12.2287 58.656 12.2361C58.3551 12.3522 57.1201 12.504 57.1201 12.504C56.8802 12.0617 57.2131 11.769 57.2131 11.769ZM34.1809 5.79367C34.3885 5.95342 34.1894 6.87442 34.0416 6.73906L32.9749 6.17475C32.9752 6.17475 33.9684 5.63819 34.1809 5.79367ZM32.4465 6.38145C32.6563 6.53785 32.4599 7.46097 32.3109 7.32379L31.2478 6.75857C31.2484 6.75857 32.2359 6.2217 32.4465 6.38145ZM31.8465 8.18259C32.0575 8.3402 31.8597 9.26486 31.7094 9.13102L30.6442 8.55879C30.6445 8.55879 31.635 8.02619 31.8465 8.18259ZM30.8317 10.6005L29.7652 10.034C29.7652 10.034 30.7573 9.49686 30.9676 9.65478C31.1804 9.81239 30.9771 10.7364 30.8317 10.6005ZM30.6307 12.4245L29.5677 11.858C29.5677 11.858 30.5573 11.3233 30.7682 11.4779C30.9789 11.6337 30.7826 12.554 30.6307 12.4245ZM30.6115 7.02349C30.8228 7.1808 30.6234 8.09997 30.4747 7.96918L29.4076 7.40092C29.4079 7.40061 30.4012 6.86436 30.6115 7.02349ZM29.6866 8.42739C29.8954 8.5841 29.6976 9.50357 29.5503 9.37309L28.4854 8.80665C28.4851 8.80665 29.4756 8.26795 29.6866 8.42739ZM27.7858 10.6303C27.7858 10.6303 28.7793 10.0907 28.9875 10.2508C29.1994 10.4069 28.9997 11.3279 28.851 11.1946L27.7858 10.6303ZM28.6019 12.9373L27.5391 12.3687C27.5391 12.3687 28.5305 11.8355 28.7397 11.9928C28.9513 12.1492 28.7531 13.0696 28.6019 12.9373ZM27.844 9.067C28.0537 9.22035 27.8556 10.1432 27.7065 10.0103L26.6453 9.44168C26.6453 9.44168 27.6312 8.90847 27.844 9.067ZM26.8858 10.9245C27.0968 11.0809 26.8989 12.0074 26.7468 11.8708L25.6843 11.3053C25.6849 11.3053 26.6757 10.773 26.8858 10.9245ZM25.4862 13.1251C25.4862 13.1251 26.477 12.5925 26.687 12.7495C26.8995 12.9049 26.6974 13.8284 26.5511 13.6948L25.4862 13.1251ZM27.3858 15.2067L26.3221 14.6393C26.3221 14.6393 27.3135 14.1024 27.5242 14.2598C27.7348 14.418 27.5336 15.3384 27.3858 15.2067ZM28.9119 16.4429L27.8476 15.878C27.8476 15.878 28.84 15.3411 29.0503 15.4969C29.2592 15.6518 29.0576 16.5792 28.9119 16.4429ZM29.389 14.5128L28.3245 13.9436C28.3245 13.9436 29.3162 13.411 29.5265 13.5634C29.7372 13.7217 29.5378 14.6427 29.389 14.5128ZM30.8045 17.2755L29.7424 16.7096C29.7424 16.7096 30.7283 16.1737 30.9411 16.331C31.1512 16.4889 30.956 17.4057 30.8045 17.2755ZM31.3158 15.4978L30.2524 14.932C30.2524 14.932 31.242 14.3991 31.4521 14.5564C31.6624 14.7113 31.4664 15.6338 31.3158 15.4978ZM31.6679 13.8177L30.6045 13.2503C30.6045 13.2503 31.5944 12.7178 31.8069 12.8741C32.0176 13.0327 31.8164 13.9503 31.6679 13.8177ZM33.1642 17.0609L32.1005 16.4911C32.1005 16.4911 33.0904 15.9594 33.3029 16.1136C33.516 16.2706 33.3142 17.1956 33.1642 17.0609ZM33.6248 15.2911L32.5618 14.7259C32.5618 14.7259 33.5532 14.1875 33.7641 14.3466C33.9715 14.4988 33.7718 15.4234 33.6248 15.2911ZM34.0105 13.4159L32.9468 12.8495C32.9468 12.8495 33.9376 12.3181 34.1498 12.4723C34.3589 12.6296 34.1593 13.5494 34.0105 13.4159ZM35.5049 16.7292L34.4379 16.1627C34.4379 16.1627 35.4296 15.6262 35.6421 15.7826C35.8513 15.9432 35.6497 16.8651 35.5049 16.7292ZM35.8622 14.8356L34.7989 14.2665C34.7989 14.2665 35.7909 13.732 36.0006 13.8872C36.2113 14.0464 36.0116 14.9637 35.8622 14.8356ZM36.2332 12.8918L35.1696 12.3245C35.1696 12.3245 36.1595 11.791 36.3713 11.9461C36.5811 12.1071 36.3823 13.0254 36.2332 12.8918ZM37.8344 15.9807L36.7695 15.4189C36.7695 15.4189 37.7612 14.8829 37.9691 15.0387C38.1825 15.1954 37.9832 16.1149 37.8344 15.9807ZM38.1255 14.1156L37.0591 13.5519C37.0591 13.5519 38.0502 13.0165 38.2594 13.1711C38.4752 13.329 38.2728 14.2543 38.1255 14.1156ZM38.495 12.2876L37.428 11.7245C37.428 11.7245 38.4213 11.1858 38.6304 11.3413C38.8404 11.5001 38.6417 12.4245 38.495 12.2876ZM40.1245 15.5865L39.0603 15.0192C39.0603 15.0192 40.0492 14.4829 40.262 14.6396C40.4748 14.7981 40.2739 15.7173 40.1245 15.5865ZM40.4151 13.8451L39.3499 13.2802C39.3499 13.2802 40.3428 12.7403 40.5517 12.901C40.762 13.0537 40.5629 13.9799 40.4151 13.8451ZM40.7657 11.9879L39.6996 11.4224C39.6996 11.4224 40.6913 10.8816 40.9038 11.0425C41.1138 11.2001 40.9172 12.1193 40.7657 11.9879ZM42.2403 15.6191L41.1785 15.053C41.1785 15.053 42.1683 14.5146 42.3787 14.6756C42.5897 14.8302 42.3897 15.7515 42.2403 15.6191ZM42.5918 13.7497L41.5251 13.1845C41.5251 13.1845 42.5183 12.6452 42.7293 12.8052C42.9378 12.9635 42.7384 13.8826 42.5918 13.7497ZM42.9903 11.8885L41.9251 11.3233C41.9251 11.3233 42.9171 10.784 43.1281 10.9447C43.3405 11.1004 43.139 12.0233 42.9903 11.8885ZM44.4585 15.6191L43.3933 15.05C43.3933 15.05 44.3835 14.5149 44.5942 14.6756C44.8045 14.8302 44.6085 15.7515 44.4585 15.6191ZM44.799 13.8531L43.7366 13.2851C43.7366 13.2851 44.7255 12.7543 44.9362 12.9059C45.1475 13.0644 44.9487 13.9881 44.799 13.8531ZM45.2021 12.0461L44.1405 11.4803C44.1405 11.4803 45.1304 10.9462 45.342 11.1004C45.5496 11.2575 45.3508 12.1794 45.2021 12.0461ZM46.5432 15.8856L45.4783 15.3137C45.4783 15.3137 46.4703 14.7829 46.6806 14.9411C46.8931 15.0945 46.6944 16.0176 46.5432 15.8856ZM46.9197 14.1735L45.8554 13.6089C45.8554 13.6089 46.848 13.0735 47.0572 13.2302C47.2699 13.39 47.0645 14.3091 46.9197 14.1735ZM47.326 12.4245L46.259 11.8605C46.259 11.8605 47.2517 11.3245 47.4635 11.4776C47.6733 11.6337 47.4712 12.554 47.326 12.4245ZM48.9854 14.543L47.9224 13.9823C47.9224 13.9823 48.9123 13.4449 49.1247 13.5991C49.3336 13.7573 49.1345 14.6783 48.9854 14.543Z" fill="#202020"/>
<path d="M21.015 30.673C20.7931 30.0827 20.3708 29.8285 19.5971 29.8169C19.5266 29.8148 15.9484 29.8203 15.9484 29.8203L10.6523 44.2413C10.6523 44.2413 13.2284 44.2413 13.2303 44.2413C13.4525 44.2571 13.6592 44.2221 13.8449 44.1385C14.3467 43.9099 14.5924 43.3285 14.6641 43.13C14.6641 43.1352 15.3845 41.121 15.4341 40.989C15.8027 40.989 20.4787 40.9871 20.7626 40.9871C20.8735 41.3271 21.8448 44.2342 21.8448 44.2342H25.3337L23.1207 37.216L21.015 30.673ZM16.3503 38.0281C16.7377 36.9678 17.7017 34.2859 18.1133 33.1997C18.4691 34.2951 19.9312 37.9921 19.9403 38.0275C19.4114 38.0275 16.5585 38.0281 16.3503 38.0281Z" fill="#202020"/>
<path d="M46.1186 29.7051H46.1168C41.9899 29.7109 38.9961 32.8089 38.9961 37.0682C38.9961 41.2415 42.056 44.3901 46.1186 44.3901C50.1797 44.3901 53.3641 41.1762 53.3641 37.0682C53.3641 32.9388 50.1797 29.7051 46.1186 29.7051ZM46.2223 41.1732C44.1187 41.1732 42.4697 39.3537 42.4697 37.0294C42.4697 34.7262 44.0828 32.9915 46.2199 32.9915C48.3411 32.9915 49.8794 34.6884 49.8794 37.0294C49.8794 39.3934 48.3064 41.1732 46.2223 41.1732Z" fill="#202020"/>
<path d="M62.7017 35.7748L62.5661 35.7352C62.57 35.737 61.2243 35.3279 61.221 35.324L61.0198 35.2526C59.9207 34.8554 59.14 34.5225 59.14 33.8826C59.14 33.8664 59.14 33.8505 59.14 33.8353C59.2491 32.7738 61.2213 32.7619 61.2405 32.7619C62.3276 32.7619 63.1636 32.9283 64.2224 33.3536L64.2449 33.3618L64.2904 33.375C64.5349 33.4243 64.7489 33.4314 64.922 33.3932L65.2153 33.2823C65.636 33.0506 66.0546 31.8247 66.215 31.3083L66.2671 31.1427L66.1375 31.0238C66.0866 30.9751 65.7781 30.7211 64.6565 30.3022C63.5157 29.8754 61.8996 29.8083 61.8996 29.8083L61.1027 29.8047C56.9392 29.8047 55.3496 32.3744 55.299 34.0999C55.2648 35.8194 56.2435 36.7038 57.7227 37.5077C58.3412 37.8507 59.4717 38.1659 60.2915 38.3952C60.2872 38.3915 61.1396 38.6436 61.1396 38.6436C62.6907 39.1311 63.2831 39.6719 63.173 40.5112C63.124 40.7887 62.5996 41.2478 61.4088 41.2478C60.5027 41.2478 59.6842 41.1091 58.8318 40.8112C58.4223 40.6487 57.9992 40.4384 57.5516 40.1728L57.5303 40.1594L57.4849 40.1396C57.237 40.0475 57.0157 40.0088 56.8251 40.025L56.4977 40.0954C56.0197 40.2743 55.3548 41.4877 55.0893 42.0008L54.9844 42.2035L55.1655 42.3468C55.1975 42.3685 55.9371 42.9565 56.5654 43.3245C57.3056 43.7346 58.1361 44.0312 59.1171 44.2297C59.5128 44.3019 60.1402 44.3934 61.1247 44.3934C64.3507 44.3934 66.6948 42.759 66.964 40.325C67.0808 38.1174 65.726 36.6769 62.7017 35.7748Z" fill="#202020"/>
<path d="M68.3563 30.2245C68.1703 30.3959 68.0724 30.6242 68.0724 30.8818L68.0703 33.1634C68.0703 33.1634 71.9628 33.1601 72.4723 33.1601C72.4723 33.697 72.4723 44.2468 72.4723 44.2468L76.0779 44.2437C76.0779 44.2437 76.0779 33.6954 76.0779 33.1601C76.559 33.1595 78.9113 33.1595 78.9113 33.1595C79.0445 33.1595 79.7469 33.1442 80.153 32.772C80.3372 32.597 80.4371 32.3735 80.4371 32.1123V29.838H69.5983C69.4648 29.8365 68.7608 29.8505 68.3563 30.2245Z" fill="#202020"/>
<path d="M7.74783 40.9828C7.74783 40.9828 4.72022 40.9828 3.69984 40.9828C3.69984 40.4511 3.68856 31.1534 3.68856 31.1534C3.68856 30.7452 3.56691 30.4211 3.32089 30.1946C2.92883 29.8266 2.34502 29.8284 2.12704 29.8327L0 29.8281L0.0054876 44.2406H9.02917L9.03619 41.9501C9.03619 41.6572 8.91058 40.9828 7.74783 40.9828Z" fill="#202020"/>
<path d="M37.1401 41.1848V41.1827L36.8536 41.0568C36.5673 40.9787 36.2307 41.004 35.8524 41.1306C35.1619 41.3162 34.4259 41.3766 33.5421 41.3184C31.2803 41.0967 29.9219 39.5578 29.8194 37.0969C29.9215 34.6604 31.2803 33.1215 33.5528 32.902C34.4274 32.8437 35.1634 32.902 35.8579 33.0919C36.2307 33.2163 36.5673 33.241 36.8523 33.1605C36.8533 33.1599 37.1401 33.0331 37.1401 33.0331C37.5438 32.7843 37.8328 31.517 37.9694 30.7871L38.0005 30.6158L37.8538 30.51C37.8166 30.4832 37.702 30.403 36.395 30.0503C35.2048 29.7295 34.1457 29.6899 33.6235 29.6936L33.5659 29.6942C30.5794 29.6942 26.0821 31.6657 25.9531 37.0936V37.1246C26.0821 42.5546 30.5794 44.5252 33.568 44.5252L33.6235 44.5274C34.1457 44.5295 35.203 44.4865 36.395 44.1664C37.7023 43.8167 37.8166 43.7356 37.855 43.7082L38.0011 43.6048L37.97 43.4329C37.8331 42.6991 37.5441 41.4354 37.1401 41.1848Z" fill="#202020"/>
<path d="M92.6154 40.9778L86.2608 40.9805C86.2608 40.9805 86.2718 38.9077 86.2718 38.5645C86.7931 38.5645 91.517 38.5645 91.517 38.5645L91.5084 35.2298C91.5084 35.2298 86.7998 35.2353 86.2809 35.2353C86.2797 34.8411 86.2809 33.5595 86.2809 33.1626C86.8004 33.1626 91.0963 33.1568 91.0963 33.1568C91.2286 33.1589 91.9475 33.1595 92.3368 32.7711C92.609 32.4983 92.6212 32.0022 92.6212 31.7437V29.8398H82.625L82.6271 44.2453L91.1231 44.2337C91.6801 44.2215 92.6264 43.8935 92.6264 42.7859L92.6154 40.9778Z" fill="#202020"/>
</svg>
