<svg width="19" height="17" viewBox="0 0 19 17" fill="none" xmlns="http://www.w3.org/2000/svg">
<path d="M13.2917 0C16.0765 0 18.3333 2.29167 18.3333 5.5C18.3333 11.9167 11.4583 15.5833 9.16667 16.9583C6.875 15.5833 0 11.9167 0 5.5C0 2.29167 2.29167 0 5.04167 0C6.74667 0 8.25 0.916667 9.16667 1.83333C10.0833 0.916667 11.5867 0 13.2917 0ZM10.0228 14.3037C10.8304 13.794 11.5592 13.2871 12.2412 12.7444C14.9738 10.5719 16.5 8.19775 16.5 5.5C16.5 3.33667 15.0911 1.83333 13.2917 1.83333C12.3053 1.83333 11.2383 2.35583 10.4628 3.1295L9.16667 4.42567L7.8705 3.1295C7.095 2.35583 6.028 1.83333 5.04167 1.83333C3.26333 1.83333 1.83333 3.35133 1.83333 5.5C1.83333 8.19867 3.3605 10.5719 6.09125 12.7444C6.77417 13.2871 7.50292 13.794 8.3105 14.3028C8.58458 14.476 8.85592 14.6419 9.16667 14.8271C9.47742 14.6419 9.74875 14.476 10.0228 14.3037Z" fill="#202020"/>
</svg>
