<svg width="20" height="19" viewBox="0 0 20 19" fill="none" xmlns="http://www.w3.org/2000/svg">
<path d="M8.25 8.25V5.5L12.8333 9.16667L8.25 12.8333V10.0833H0V8.25H8.25ZM1.3365 11.9167H3.2835C3.92337 13.4925 5.0909 14.797 6.58636 15.6071C8.08181 16.4172 9.81228 16.6825 11.4818 16.3577C13.1512 16.0328 14.656 15.138 15.7386 13.8263C16.8211 12.5146 17.4143 10.8674 17.4167 9.16667C17.4176 7.4641 16.8261 5.81426 15.7437 4.50012C14.6612 3.18598 13.1552 2.28943 11.484 1.96424C9.81275 1.63906 8.08046 1.90551 6.58421 2.7179C5.08797 3.53028 3.92101 4.83797 3.2835 6.41667H1.3365C2.50433 2.69775 5.9785 0 10.0833 0C15.1461 0 19.25 4.10392 19.25 9.16667C19.25 14.2294 15.1461 18.3333 10.0833 18.3333C5.9785 18.3333 2.50433 15.6356 1.3365 11.9167Z" fill="#202020"/>
</svg>
