<svg width="79" height="79" viewBox="0 0 79 79" fill="none" xmlns="http://www.w3.org/2000/svg">
<g clip-path="url(#clip0_1_1187)">
<path d="M77.6212 25.4736L20.8317 49.6567C16.1219 51.6493 12.1669 52.6456 8.96663 52.6456C5.34369 52.6456 2.71707 51.3776 1.08675 48.8415C0.0602498 47.2112 -0.241661 45.1431 0.181014 42.6373C0.60369 40.1314 1.72076 37.4595 3.53223 34.6215C5.04178 32.327 7.51745 29.3079 10.9592 25.5642C9.75159 27.4964 8.90624 29.489 8.42319 31.542C7.51745 35.4065 8.33261 38.2445 10.8687 40.0559C12.0763 40.9013 13.7368 41.324 15.8502 41.324C17.5409 41.324 19.4429 41.0522 21.5563 40.5088L77.6212 25.4736Z" fill="#202020"/>
</g>
<defs>
<clipPath id="clip0_1_1187">
<rect width="78.1195" height="78.1195" fill="white"/>
</clipPath>
</defs>
</svg>
