<svg width="17" height="19" viewBox="0 0 17 19" fill="none" xmlns="http://www.w3.org/2000/svg">
<path d="M3.20833 0H13.2917C13.434 0 13.5743 0.0331329 13.7016 0.096775C13.8289 0.160417 13.9396 0.25282 14.025 0.366667L16.5 3.66667V17.4167C16.5 17.6598 16.4034 17.8929 16.2315 18.0648C16.0596 18.2368 15.8264 18.3333 15.5833 18.3333H0.916667C0.673552 18.3333 0.440394 18.2368 0.268485 18.0648C0.0965771 17.8929 0 17.6598 0 17.4167V3.66667L2.475 0.366667C2.56038 0.25282 2.6711 0.160417 2.79839 0.096775C2.92567 0.0331329 3.06603 0 3.20833 0ZM14.6667 5.5H1.83333V16.5H14.6667V5.5ZM14.2083 3.66667L12.8333 1.83333H3.66667L2.29167 3.66667H14.2083ZM5.5 7.33333V9.16667C5.5 9.89601 5.78973 10.5955 6.30546 11.1112C6.82118 11.6269 7.52065 11.9167 8.25 11.9167C8.97935 11.9167 9.67882 11.6269 10.1945 11.1112C10.7103 10.5955 11 9.89601 11 9.16667V7.33333H12.8333V9.16667C12.8333 10.3822 12.3504 11.548 11.4909 12.4076C10.6314 13.2671 9.46558 13.75 8.25 13.75C7.03442 13.75 5.86864 13.2671 5.00909 12.4076C4.14955 11.548 3.66667 10.3822 3.66667 9.16667V7.33333H5.5Z" fill="#202020"/>
</svg>
