<svg width="19" height="19" viewBox="0 0 19 19" fill="none" xmlns="http://www.w3.org/2000/svg">
<path d="M14.6951 13.3989L18.6212 17.3241L17.3241 18.6212L13.3989 14.6951C11.9384 15.8659 10.1218 16.5027 8.25 16.5C3.696 16.5 0 12.804 0 8.25C0 3.696 3.696 0 8.25 0C12.804 0 16.5 3.696 16.5 8.25C16.5027 10.1218 15.8659 11.9384 14.6951 13.3989ZM12.8562 12.7188C14.0196 11.5224 14.6693 9.91873 14.6667 8.25C14.6667 4.70433 11.7948 1.83333 8.25 1.83333C4.70433 1.83333 1.83333 4.70433 1.83333 8.25C1.83333 11.7948 4.70433 14.6667 8.25 14.6667C9.91873 14.6693 11.5224 14.0196 12.7188 12.8562L12.8562 12.7188Z" fill="#202020"/>
</svg>
