<svg width="82" height="29" viewBox="0 0 82 29" fill="none" xmlns="http://www.w3.org/2000/svg">
<g clip-path="url(#clip0_1_1190)">
<path d="M0.0141602 0H81.6502V28.1251H0.0141602V0Z" fill="#202020"/>
<path d="M55.0024 8.67701H58.0563V9.26819C59.8941 8.51805 61.6796 8.15877 63.1265 9.78642C63.9507 9.43803 64.7008 8.98294 65.5141 8.7935C67.881 8.23281 69.5282 9.66448 69.2332 12.0782C68.9381 14.4919 68.4711 16.8958 68.0813 19.315H64.9861C65.1548 18.2371 65.3127 17.1919 65.4934 16.1457C65.6828 14.984 65.8843 13.8212 66.0748 12.6618C66.0732 12.6438 66.0766 12.6257 66.0846 12.6095C66.2011 11.732 65.9049 11.0668 65.3138 10.898C64.6692 10.7184 63.8668 11.0777 63.5816 11.8692C63.2963 12.6607 63.1897 13.5022 63.0372 14.3308C62.7727 15.8844 62.5408 17.4576 62.2653 19.0123C62.2385 19.0893 62.194 19.159 62.1354 19.2158C62.0768 19.2725 62.0057 19.3147 61.9278 19.3389C61.0187 19.3705 60.0998 19.3487 59.1276 19.3487C59.3181 18.1446 59.5087 16.972 59.6981 15.7995C59.8777 14.6694 60.0792 13.5491 60.2425 12.4244C60.3372 11.8115 60.0628 11.2094 59.5979 10.9775C59.1331 10.7456 58.531 10.8926 58.0661 11.3466C57.4749 11.9279 57.4433 12.6988 57.316 13.438C56.9893 15.3977 56.6823 17.3574 56.3546 19.3335H53.2703C53.8516 15.7657 54.4221 12.248 55.0024 8.67701ZM27.156 18.248C26.8294 20.2763 26.5115 22.2099 26.1838 24.175H23.0885C23.9334 18.9981 24.7684 13.8539 25.6133 8.6879H28.7085C28.677 8.95137 28.6345 9.19415 28.6138 9.40537C29.2475 9.16258 29.8604 8.82508 30.5147 8.6879C32.7336 8.21212 34.5714 9.37379 35.1963 11.561C36.0934 14.6977 33.8735 18.4483 30.6737 19.1615C29.3846 19.4315 28.223 19.1669 27.156 18.248ZM32.0782 13.6841C32.0891 12.4865 31.6351 11.6982 30.8806 11.413C30.1261 11.1277 29.254 11.4446 28.6095 12.2263C28.3092 12.5818 28.0842 12.9946 27.948 13.4396C27.8117 13.8846 27.7671 14.3525 27.8169 14.8153C27.8909 15.597 28.2186 16.2513 29.0145 16.5256C29.7766 16.7902 30.4298 16.505 30.9905 15.9878C31.6411 15.3922 32.0316 14.5649 32.0782 13.6841ZM2.45605 16.7053C3.16373 16.1141 3.85071 15.5436 4.5377 14.9633C4.84363 15.3128 5.1082 15.671 5.42502 15.9671C6.18713 16.6966 7.08315 16.7064 8.03796 16.3798C8.95685 16.0629 9.54803 15.45 9.71678 14.4669C9.82565 13.8017 9.63295 13.242 9.05157 12.8719C8.64003 12.6084 8.19583 12.3961 7.76251 12.1642C7.49904 12.027 7.22468 11.8996 6.96012 11.7733C3.23776 9.95517 3.85072 5.87898 6.53443 3.99657C8.31994 2.74998 10.1686 2.90784 12.0281 3.79624C12.4288 3.98677 12.799 4.25024 13.2258 4.50392C12.6237 5.25405 12.0641 5.95083 11.5143 6.62693C11.0178 6.40919 10.5529 6.15225 10.0565 6.00418C8.8839 5.6449 7.82784 6.13048 7.28892 7.23009C6.92964 7.96934 7.0875 8.63455 7.79518 9.04718C8.50285 9.4598 9.2323 9.77553 9.93997 10.1555C11.2606 10.8643 12.2263 11.867 12.4332 13.4217C12.7598 15.8093 11.5622 17.8789 9.34879 18.8653C6.72387 20.0128 4.04233 19.1985 2.45605 16.7053ZM14.7957 8.67701H17.9018C17.5317 10.9372 17.1833 13.1778 16.8131 15.4064C16.665 16.3046 16.922 16.653 17.8169 16.7271C18.9361 16.8218 19.45 16.4004 19.6231 15.3117C19.9715 13.1136 20.3417 10.9165 20.7118 8.67701H23.8071C23.5959 10.0183 23.3847 11.3389 23.1626 12.6705C23.0145 13.5893 22.8556 14.5082 22.6977 15.4271C22.3493 17.487 20.9753 18.8719 18.9263 19.2094C17.7636 19.3999 16.6128 19.4097 15.4925 18.9916C14.1294 18.4745 13.4119 17.1963 13.6547 15.7483C14.0347 13.4206 14.4048 11.0755 14.7957 8.67701ZM52.9959 14.456H46.3547C46.2708 15.5545 46.7989 16.653 47.5914 16.9067C48.9121 17.3422 49.598 16.4527 50.2425 15.5012C50.9719 15.7766 51.6905 16.0455 52.408 16.3144C51.5207 18.1958 48.8696 20.0651 46.2284 19.1887C44.3688 18.5757 43.4815 17.1288 43.3019 15.2475C43.0188 12.3428 45.1777 9.39557 47.9986 8.76193C50.4494 8.21757 52.605 9.63291 52.9741 12.137C53.0797 12.8708 52.9959 13.6525 52.9959 14.456ZM46.6355 12.554H50.4602C50.1434 11.3564 49.5196 10.726 48.7183 10.7162C47.8408 10.7053 46.985 11.4554 46.6355 12.554ZM76.924 15.5012C77.6523 15.7766 78.36 16.0455 79.0687 16.3046C77.8113 18.8817 74.1139 20.5093 71.6099 18.4908C70.1728 17.3291 69.7405 15.7439 70.0258 13.9911C70.4166 11.5077 71.7895 9.71239 74.2087 8.88822C76.9871 7.93776 79.5434 9.7015 79.7231 12.6389C79.7655 13.2301 79.734 13.8212 79.734 14.456H73.0252C72.9098 15.4914 73.4694 16.579 74.2511 16.9067C75.096 17.2758 75.8254 16.9067 76.924 15.5012ZM77.072 12.5855C77.0187 11.6057 76.2478 10.7347 75.4128 10.7053C74.5048 10.6737 73.4378 11.6351 73.3442 12.5855H77.072ZM43.6992 8.66612C43.4249 9.59589 43.1712 10.4516 42.9067 11.3498C42.7932 11.3345 42.6805 11.3134 42.5691 11.2867C41.1004 10.8316 39.8332 11.5817 39.5577 13.1136C39.2202 14.984 38.935 16.8534 38.628 18.7238C38.5964 18.9132 38.5539 19.1038 38.5191 19.315H35.438C36.0194 15.7548 36.5899 12.2263 37.1701 8.67701H40.2338C40.224 8.91979 40.2023 9.15278 40.1816 9.42714C41.2485 8.62366 42.4211 8.51805 43.6992 8.66612Z" fill="white"/>
</g>
<defs>
<clipPath id="clip0_1_1190">
<rect width="81.6641" height="28.1251" fill="white"/>
</clipPath>
</defs>
</svg>
