<svg width="14" height="14" viewBox="0 0 14 14" fill="none" xmlns="http://www.w3.org/2000/svg">
<path d="M2.82333 2.96867C1.97336 3.85086 1.453 4.99877 1.34971 6.21944C1.24643 7.44012 1.56651 8.65914 2.25617 9.67161C2.94583 10.6841 3.96301 11.4283 5.13674 11.7791C6.31047 12.1299 7.56919 12.066 8.70133 11.598C8.778 11.098 8.61 10.618 8.54133 10.45C8.388 10.0767 7.88267 9.43867 7.03933 8.554C6.814 8.31733 6.82867 8.13533 6.90933 7.596L6.918 7.53533C6.97267 7.166 7.06467 6.94733 8.308 6.75C8.94 6.65 9.106 6.902 9.336 7.252L9.41333 7.36667C9.632 7.68667 9.794 7.76 10.0387 7.87067C10.1487 7.92067 10.2853 7.984 10.4687 8.08733C10.9033 8.336 10.9033 8.61667 10.9033 9.23133V9.30133C10.9033 9.562 10.878 9.79133 10.838 9.99067C11.3496 9.34861 11.7061 8.59715 11.8797 7.79479C12.0534 6.99243 12.0395 6.16082 11.8392 5.36469C11.6389 4.56856 11.2576 3.8294 10.7249 3.20476C10.1922 2.58011 9.52251 2.08684 8.768 1.76333C8.39933 2.012 7.89333 2.36467 7.71667 2.60667C7.62667 2.73 7.49867 3.36133 7.08333 3.41333C6.97533 3.42667 6.82933 3.41733 6.67467 3.40733C6.26 3.38067 5.69333 3.344 5.512 3.83667C5.39667 4.14867 5.37667 4.99667 5.74933 5.43667C5.80933 5.50667 5.82067 5.63667 5.78 5.78267C5.72667 5.974 5.61933 6.09067 5.58533 6.11467C5.52133 6.07733 5.39333 5.92867 5.306 5.828C5.09733 5.58467 4.836 5.28133 4.49867 5.188C4.376 5.154 4.24133 5.126 4.11 5.098C3.744 5.02133 3.33 4.934 3.23333 4.72867C3.16267 4.578 3.16333 4.37067 3.16333 4.152C3.16333 3.874 3.16333 3.56 3.02733 3.25533C2.98005 3.14661 2.91057 3.04896 2.82333 2.96867ZM6.66667 13.3333C2.98467 13.3333 0 10.3487 0 6.66667C0 2.98467 2.98467 0 6.66667 0C10.3487 0 13.3333 2.98467 13.3333 6.66667C13.3333 10.3487 10.3487 13.3333 6.66667 13.3333Z" fill="white"/>
</svg>
