<svg width="73" height="31" viewBox="0 0 73 31" fill="none" xmlns="http://www.w3.org/2000/svg">
<path d="M68.6634 29.5423L57.9405 0.0194817L57.9331 0H57.7215L55.5133 6.06686L51.4934 17.1116L51.484 17.1029C50.0907 15.8735 48.1251 15.105 45.6496 14.8188L44.8945 14.7409L45.6435 14.6448C49.7259 13.9112 52.4701 11.333 52.4701 8.22663C52.4701 3.96687 48.4636 0.993565 42.7246 0.993565H30.7837V1.20921H34.2535V23.2201L25.8266 0.0194817L25.8192 0H25.6076L23.3995 6.06686L14.8826 29.4663L14.8302 29.4724C14.6847 29.4903 14.5407 29.5046 14.3983 29.5154C14.184 29.5322 13.971 29.5423 13.7574 29.5423H5.15189L21.5098 1.20921L21.6314 0.996252H1.62504V9.76098H1.83732C1.87494 5.49181 4.3612 1.20921 9.85436 1.20921H16.4815L0 29.7545H22.2037V21.3573H21.9914C21.9625 25.0783 19.8532 28.6125 15.2662 29.4106L15.1205 29.4354L18.6137 19.8337H28.3996L31.9257 29.5423H28.4473V29.7545H42.0999V29.5423H38.6066V14.8974H42.6373C46.7392 14.8974 49.0918 16.73 49.0918 19.9237V22.5215C49.0918 22.8076 49.1112 23.2262 49.1327 23.5762V23.5889L46.9662 29.5409H44.136V29.7532H49.9946V29.5409H47.1947L49.1677 24.121C49.1717 24.1734 49.1737 24.205 49.1737 24.205L49.2281 24.6933L49.2805 25.0165C49.6097 27.015 50.3742 28.4842 51.5518 29.383L51.7211 29.506C52.6159 30.128 53.7277 30.4431 55.0276 30.4431C56.7494 30.4431 57.8975 30.0138 58.8454 29.0035L58.7211 28.8866C57.8478 29.6927 57.1148 30.0192 56.1965 30.0192C54.6319 30.0192 53.813 28.1214 53.813 26.2499V22.6101C53.8214 21.707 53.68 20.8088 53.3945 19.9519L53.3556 19.839V19.835H60.5134L64.0396 29.5436H60.5611V29.7559H72.3757V29.5436L68.6634 29.5423ZM18.6916 19.6214L23.5123 6.37722L28.3223 19.6214H18.6916ZM38.6086 14.6845V1.20921H41.6854C45.7953 1.20921 47.9652 3.65248 47.9652 8.27232C47.9652 13.1857 46.7197 14.6845 42.6373 14.6845H38.6086ZM53.2723 19.6214L53.2514 19.569C52.9333 18.7943 52.4703 18.0874 51.887 17.4865L51.6855 17.2849L51.664 17.2648L55.6235 6.37722L60.4334 19.6214H53.2723Z" fill="#202020"/>
</svg>
